<svg xmlns="http://www.w3.org/2000/svg" viewBox="0 0 512 512" width="24" height="24">
  <path fill="#f6b545" d="M268 500H12c-7 0-12-4-12-11v-24c0-7 5-11 12-11h256c7 0 11 4 11 11v24c0 7-4 11-11 11z"/>
  <path fill="#ffcb5b" d="M221 465H0c0-7 5-11 12-11h209v11z"/>
  <g fill="#f19920">
    <path d="M221 465v12c0 7-5 12-12 12H0c0 7 5 11 12 11h256c7 0 11-4 11-11v-24h-58z"/>
    <path d="M35 489v-18c0-3-2-6-6-6s-6 3-6 6v18M70 489v-18c0-3-3-6-6-6s-6 3-6 6v18M105 489v-18c0-3-3-6-6-6-4 0-6 3-6 6v18M140 489v-18c0-3-3-6-6-6-4 0-6 3-6 6v18M175 489v-18c0-3-3-6-6-6s-6 3-6 6v18M209 489v-18c0-3-2-6-5-6s-6 3-6 6v18"/>
  </g>
  <path fill="#f6b545" d="M291 454H35c-7 0-12-5-12-12v-23c0-7 5-12 12-12h256c7 0 12 5 12 12v23c0 7-5 12-12 12z"/>
  <path fill="#ffcb5b" d="M244 419H23c0-7 5-12 12-12h209v12z"/>
  <g fill="#f19920">
    <path d="M244 419v12c0 7-4 11-11 11H23c0 7 5 12 12 12h256c7 0 12-5 12-12v-23h-59z"/>
    <path d="M58 442v-17c0-4-2-6-6-6-3 0-5 2-5 6v17M93 442v-17c0-4-2-6-6-6-3 0-6 2-6 6v17M128 442v-17c0-4-2-6-6-6-3 0-6 2-6 6v17M163 442v-17c0-4-2-6-6-6s-6 2-6 6v17M198 442v-17c0-4-3-6-6-6s-6 2-6 6v17M233 442v-17c0-4-3-6-6-6-4 0-6 2-6 6v17"/>
  </g>
  <path fill="#f6b545" d="M314 361H58c-7 0-11-5-11-12v-23c0-7 4-12 11-12h256c7 0 12 5 12 12v23c0 7-5 12-12 12z"/>
  <path fill="#ffcb5b" d="M268 326H47c0-7 4-12 11-12h210v12z"/>
  <g fill="#f19920">
    <path d="M268 326v11c0 7-5 12-12 12H47c0 7 4 12 11 12h256c7 0 12-5 12-12v-23h-58z"/>
    <path d="M81 349v-17c0-4-2-6-5-6-4 0-6 2-6 6v17M116 349v-17c0-4-2-6-5-6-4 0-6 2-6 6v17M151 349v-17c0-4-2-6-6-6-3 0-5 2-5 6v17M186 349v-17c0-4-2-6-6-6-3 0-5 2-5 6v17M221 349v-17c0-4-2-6-6-6s-6 2-6 6v17M256 349v-17c0-4-2-6-6-6s-6 2-6 6v17"/>
  </g>
  <path fill="#f6b545" d="M291 314H35c-7 0-12-4-12-11v-24c0-7 5-11 12-11h256c7 0 12 4 12 11v24c0 7-5 11-12 11z"/>
  <path fill="#ffcb5b" d="M244 279H23c0-7 5-11 12-11h209v11z"/>
  <g fill="#f19920">
    <path d="M244 279v12c0 7-4 12-11 12H23c0 7 5 11 12 11h256c7 0 12-4 12-11v-24h-59z"/>
    <path d="M58 303v-18c0-3-2-6-6-6-3 0-5 3-5 6v18M93 303v-18c0-3-2-6-6-6-3 0-6 3-6 6v18M128 303v-18c0-3-2-6-6-6-3 0-6 3-6 6v18M163 303v-18c0-3-2-6-6-6s-6 3-6 6v18M198 303v-18c0-3-3-6-6-6s-6 3-6 6v18M233 303v-18c0-3-3-6-6-6-4 0-6 3-6 6v18"/>
  </g>
  <path fill="#f6b545" d="M268 407H12c-7 0-12-4-12-11v-24c0-7 5-11 12-11h256c7 0 11 4 11 11v24c0 7-4 11-11 11z"/>
  <path fill="#ffcb5b" d="M221 372H0c0-7 5-11 12-11h209v11z"/>
  <g fill="#f19920">
    <path d="M221 372v12c0 7-5 12-12 12H0c0 7 5 11 12 11h256c7 0 11-4 11-11v-24h-58z"/>
    <path d="M35 396v-18c0-3-2-6-6-6s-6 3-6 6v18M70 396v-18c0-3-3-6-6-6s-6 3-6 6v18M105 396v-18c0-3-3-6-6-6-4 0-6 3-6 6v18M140 396v-18c0-3-3-6-6-6-4 0-6 3-6 6v18M175 396v-18c0-3-3-6-6-6s-6 3-6 6v18M209 396v-18c0-3-2-6-5-6s-6 3-6 6v18"/>
  </g>
  <path fill="#c97629" d="M489 425a56 56 0 01-24-47c0-71-27-138-78-188l-50-50v-35l41-51c4-5 6-11 6-17 0-14-12-25-26-25h-44l-11 23-24-23h-56c-14 0-25 11-25 25 0 6 2 12 6 17l40 51v35l-50 50c-50 50-78 117-78 188 0 19-8 36-23 47s-23 28-23 46c0 17 13 29 29 29h384c16 0 29-12 29-29 0-18-8-36-23-46z"/>
  <path fill="#b06328" d="M489 425a60 60 0 01-24-48c2-73-32-142-83-194l-45-43v-35l41-51c7-9 8-20 3-31-5-8-14-11-24-11-8 0-13 9-10 16l2 9c0 6-2 12-6 17l-40 51v35h-59l-11 11h81l43 43c48 48 67 113 62 180a58 58 0 0026 52c17 19 2 50-25 50H71c2 13 14 23 28 23h384c16 0 29-13 29-29v-2c0-18-9-33-23-43z"/>
  <path fill="#ffcb5b" d="M343 140H239c-10 0-18-9-18-18s8-17 18-17h104c10 0 18 8 18 17s-8 18-18 18z"/>
  <path fill="#ffe278" d="M239 105h58c3 0 6 2 6 6 0 3-3 5-6 5h-58c-4 0-6-2-6-5 0-4 2-6 6-6z"/>
  <path fill="#f6b545" d="M343 105h-6v11c0 7-4 12-11 12H222c3 7 10 12 17 12h104c10 0 18-9 18-18s-8-17-18-17z"/>
  <path fill="#f19920" d="M308 128h35c4 0 6 2 6 6 0 3-2 6-6 6h-35c-3 0-5-3-5-6 0-4 2-6 5-6z"/>
  <path fill="#f6b545" d="M279 140h23v93h-23z"/>
  <path fill="#f19920" d="M279 140v11h12v82h12v-93z"/>
  <circle cx="290.9" cy="314.2" r="93.1" fill="#f6b545"/>
  <path fill="#b06328" d="M362 255c14 16 22 36 22 59 0 51-42 93-93 93-23 0-43-8-59-22a92 92 0 00164-59c0-29-13-55-34-71z"/>
  <circle cx="290.9" cy="314.2" r="81.5" fill="#ffcb5b"/>
  <path fill="#f19920" d="M372 314c0 46-36 82-81 82v11c51 0 93-42 93-93h-12z"/>
  <path fill="#ffe27a" d="M291 233v-12c-51 0-93 42-93 93h11c0-45 37-81 82-81z"/>
  <path fill="#e78825" d="M303 303h-24c-7 0-11-5-11-12s4-12 11-12h35c7 0 12-4 12-11s-5-12-12-12h-11c0-7-5-12-12-12s-12 5-12 12c-20 0-35 15-35 35s15 35 35 35h24c7 0 11 4 11 11s-4 12-11 12h-35c-7 0-12 5-12 12s5 11 12 11h11c0 7 5 12 12 12s12-5 12-12c19 0 34-15 34-35s-15-34-34-34z"/>
</svg>