<svg xmlns="http://www.w3.org/2000/svg" viewBox="0 0 512 512" width="24" height="24">
  <path fill="#91dc5a" d="M495 95.1h-54.4l42.6-42.6a16.8 16.8 0 10-23.8-23.8l-42.6 42.6V16.8a16.8 16.8 0 00-33.6 0V112c0 9.2 7.5 16.8 16.8 16.8h95a16.8 16.8 0 000-33.6z"/>
  <path fill="#88cc2a" d="M495 95.1h-54.4l42.6-42.6a16.8 16.8 0 10-23.8-23.8l-42.6 42.6V16.8a16.8 16.8 0 00-33.6 0V112c0 9.2 7.5 16.8 16.8 16.8h95a16.8 16.8 0 000-33.6z"/>
  <path fill="#ff9f19" d="M414 98c-52.4-52.5-127.1-63.2-166.4-23.8-4.6 4.5-13 14.2-24 27.8a2680.9 2680.9 0 00-101.8 135.8c-54.4 78.3-153 223.3-112 264.3 29.9 29.9 112.6-13.5 178.7-55a2387.6 2387.6 0 00141-96.8c8.6-6.2 27.1-20.2 27.1-20.2 16.7-12.7 66.4-51 81.2-65.8C478.4 223.7 465.5 149.4 414 98z"/>
  <path fill="#7fb335" d="M495.1 95.1h-54.5l42.6-42.6a16.8 16.8 0 000-23.8l-95 95.1c3 3 7.2 5 11.8 5h95.1a16.8 16.8 0 000-33.7z"/>
  <g fill="#f28618">
    <path d="M437.8 264.3c-14.8 14.8-64.5 53.1-81.2 65.8-7.8 6-18.3 13.8-27 20.3a2386.9 2386.9 0 01-112.2 78.2c-9.1 6-18.8 12.3-28.9 18.6C122.4 488.6 39.7 532 9.8 502L414 97.9c51.5 51.5 64.4 125.8 23.8 166.4zM259.5 161.6a16.8 16.8 0 01-23.7 0l-33.2-33.2c7.6-10 14.8-18.8 21-26.4l35.9 35.9a16.7 16.7 0 010 23.7zM188.1 280.5a16.8 16.8 0 01-23.7 0l-42.6-42.7 19.7-27.7 46.6 46.6a16.8 16.8 0 010 23.8z"/>
  </g>
  <g fill="#e67400">
    <path d="M356.6 330.1s-15.2 11.6-27 20.3l-30.4-30.3a16.8 16.8 0 1123.7-23.7l33.7 33.7zM217.4 428.6c-9.1 6-18.8 12.3-28.9 18.6l-32-32a16.7 16.7 0 1123.7-23.7l37.2 37.1z"/>
  </g>
</svg>