<svg xmlns="http://www.w3.org/2000/svg" viewBox="0 0 512 512" width="24" height="24">
  <path fill="#c9f3ff" d="M346.08 502H191.82l39.96-95.95h74.34z"/>
  <path fill="#898998" d="M371.24 406.05H168.11c-20.06 0-36.86-16.41-36.47-36.47a35.77 35.77 0 0135.76-35.07h142.16a40 40 0 0039.17-31.89l54.73-264.1a35.77 35.77 0 1170.06 14.52l-67.25 324.5a35.77 35.77 0 01-35.03 28.51z"/>
  <path fill="#36d28f" d="M332.18 118a53.66 53.66 0 00-63.43 41.65l-8.75 43.6-23.8 23.94H154a22.36 22.36 0 100 44.71h-38a31.3 31.3 0 00-30.3 23.41L38.4 476.88A20.06 20.06 0 0057.8 502h23.23c9.13 0 17.11-6.17 19.41-15l39.73-152.5h169.39a40 40 0 0039.17-31.88l25.1-121.2A53.65 53.65 0 00332.18 118z"/>
  <path fill="#feda9b" d="M337.83 12.38a47.86 47.86 0 00-47.85 47.85v8.7a47.86 47.86 0 0095.71 0v-8.7a47.85 47.85 0 00-47.86-47.85z"/>
  <path d="M436.31 222.58a10.05 10.05 0 00-10 10 10.04 10.04 0 0010 10c2.63 0 5.21-1.07 7.07-2.93 1.86-1.86 2.93-4.44 2.93-7.07s-1.07-5.2-2.93-7.07a10.1 10.1 0 00-7.07-2.93z"/>
  <path d="M476.75 20.66A45.47 45.47 0 00447.78.96a45.48 45.48 0 00-34.42 6.57 45.47 45.47 0 00-19.7 28.97l-1.06 5.14a57.94 57.94 0 00-54.77-39.26 57.92 57.92 0 00-57.85 57.85v8.7a57.7 57.7 0 0018.36 42.23 64.17 64.17 0 00-11.98 6.17 63.28 63.28 0 00-27.41 40.36l-8.16 40.65-18.75 18.85H154a32.4 32.4 0 00-29.9 44.72h-8.1a41.31 41.31 0 00-39.97 30.88l-11.8 45.3a10 10 0 1019.35 5.05l11.8-45.3a21.3 21.3 0 0120.61-15.93h146.5a10 10 0 007.1-2.97l50.62-51.14A10 10 0 10306 213.73L258.3 261.9H153.99a12.37 12.37 0 01-12.36-12.36c0-6.81 5.54-12.36 12.36-12.36h82.21a10 10 0 007.1-2.95l57.23-57.57a10 10 0 10-14.18-14.1l-10 10.06 2.2-10.95a43.37 43.37 0 0118.78-27.63 43.36 43.36 0 0132.82-6.26 43.37 43.37 0 0127.64 18.79 43.37 43.37 0 016.25 32.82l-.03.22-25.07 120.98a30.12 30.12 0 01-29.38 23.9H167.4c-23.45 0-43.09 18.07-45.5 41-.2.45-.38.92-.5 1.41L90.77 484.47a10.06 10.06 0 01-9.74 7.53H57.8a10 10 0 01-7.96-3.91 10 10 0 01-1.78-8.7l16.7-64.1a10 10 0 10-19.35-5.04l-16.7 64.1a29.86 29.86 0 005.3 25.97A29.86 29.86 0 0057.82 512h23.22a30.07 30.07 0 0029.1-22.48l23.19-89.03c.46.5.92 1.01 1.4 1.5a47.07 47.07 0 0033.39 14.06h48.68l-34.2 82.1a10 10 0 009.23 13.85h154.26a10 10 0 009.23-13.85l-34.2-82.1h50.13a45.95 45.95 0 0044.82-36.48l21.9-105.64a10 10 0 10-19.6-4.05L396.49 375.5a25.87 25.87 0 01-25.24 20.54H168.11A26.94 26.94 0 01149 388a25.2 25.2 0 01-7.37-18.22 25.9 25.9 0 0125.76-25.26h142.17a50.2 50.2 0 0048.96-39.86l54.72-264.1a25.6 25.6 0 0111.1-16.3 25.62 25.62 0 0119.37-3.7 25.6 25.6 0 0116.31 11.09 25.6 25.6 0 013.7 19.38L434 194.4a10 10 0 1019.58 4.05l29.72-143.38a45.47 45.47 0 00-6.56-34.4zm-177.3 395.39L331.08 492H206.82l31.63-75.95h61zm.53-355.82a37.9 37.9 0 0137.85-37.85 37.9 37.9 0 0137.86 37.85v8.7a37.9 37.9 0 01-37.86 37.86 37.9 37.9 0 01-37.85-37.86v-8.7zm61.95 61.28a58.1 58.1 0 0016.48-11.39l-4.96 23.95a63.75 63.75 0 00-11.52-12.56z"/>
  <path d="M64.88 385.21a10.04 10.04 0 0010-10c0-2.63-1.07-5.2-2.93-7.07a10.08 10.08 0 00-7.07-2.93c-2.63 0-5.21 1.07-7.07 2.93a10.1 10.1 0 00-2.93 7.07 10.03 10.03 0 0010 10z"/>
</svg>