<svg xmlns="http://www.w3.org/2000/svg" viewBox="0 0 512 512" width="24" height="24">
  <path fill="#fff" d="M469.01 498.75l-21.33-85.33a10.66 10.66 0 00-10.35-8.09h-10.66V275.37A31.95 31.95 0 00448 245.33v-64c0-17.64-14.35-32-32-32h-32V128C384 57.42 326.58 0 256 0S128 57.42 128 128v21.33H96c-17.65 0-32 14.36-32 32v64a31.95 31.95 0 0021.33 30.04v129.96H74.67c-4.9 0-9.16 3.34-10.35 8.09L43 498.75A10.63 10.63 0 0053.33 512h85.34c5.9 0 10.66-4.77 10.66-10.67V367.96c3.7 1.33 8.02 2.7 13.04 4.14l12.41 36.66a10.7 10.7 0 005.51 6.2c.52.25 7.43 3.39 20.9 6.36l-9.05 57a10.7 10.7 0 0010.53 12.35h106.66a10.67 10.67 0 0010.54-12.35l-9.05-57c13.46-2.97 20.37-6.11 20.9-6.36a10.66 10.66 0 005.5-6.21l12.4-36.64c5.03-1.45 9.35-2.82 13.05-4.15v133.37c0 5.9 4.77 10.67 10.67 10.67h85.33A10.66 10.66 0 00469 498.75zM128 490.67h-21.33V480a10.66 10.66 0 10-21.34 0v10.67H67l16-64h45v64zM128 352v53.33h-21.33v-128H128V352zm0-96H96a10.67 10.67 0 01-10.67-10.67v-64c0-5.88 4.78-10.66 10.67-10.66h32V256zm138.67 213.33v-10.66a10.66 10.66 0 10-21.34 0v10.66h-30.17l7.07-44.53c9.56 1.11 20.76 1.87 33.77 1.87s24.2-.76 33.77-1.87l7.07 44.53h-30.17zm51.94-72.16c-8.05 2.7-28.52 8.16-62.61 8.16-34.13 0-54.6-5.47-62.62-8.16l-6.55-19.36C205.2 381.29 228.05 384 256 384c27.95 0 50.8-2.7 69.17-6.2l-6.56 19.37zm44.06-52.02c-13.05 5.4-48.82 17.52-106.67 17.52s-93.63-12.13-106.67-17.52V175.96C168.03 182.66 203.32 192 256 192s87.97-9.34 106.67-16.04v169.19zm-148.3-176.88l8.59-82.94h66.08l8.58 82.94c-12.38 1.4-26.01 2.4-41.62 2.4s-29.24-1-41.62-2.4zm148.3-15.16c-7.22 3.02-21.87 8.12-43.9 12.13l-9.49-91.67A10.67 10.67 0 00298.67 64h-85.34a10.67 10.67 0 00-10.61 9.57l-9.49 91.67c-22.03-4.01-36.68-9.11-43.9-12.13V128c0-58.81 47.86-106.67 106.67-106.67S362.67 69.2 362.67 128v25.11zM384 170.67h32c5.88 0 10.67 4.78 10.67 10.66v64c0 5.89-4.78 10.67-10.67 10.67h-32v-85.33zM384 352v-74.67h21.33v128H384V352zm42.67 138.67V480a10.66 10.66 0 10-21.34 0v10.67H384v-64h45l16 64h-18.33z"/>
  <circle fill="#fff" cx="256" cy="128" r="21.33"/>
  <path fill="#fff" d="M192 245.33c0 5.9 4.77 10.67 10.67 10.67h106.66a10.66 10.66 0 100-21.33H202.67c-5.9 0-10.67 4.77-10.67 10.66zM309.33 298.67H202.67a10.66 10.66 0 100 21.33h106.66a10.66 10.66 0 100-21.33z"/>
  <circle fill="#fff" cx="330.67" cy="138.67" r="10.67"/>
</svg>